<?xml version="1.0" encoding="iso-8859-1"?>
<!-- Generator: Adobe Illustrator 19.0.0, SVG Export Plug-In . SVG Version: 6.00 Build 0)  -->
<svg version="1.1" id="Layer_1" xmlns="http://www.w3.org/2000/svg" xmlns:xlink="http://www.w3.org/1999/xlink" x="0px" y="0px"
	 viewBox="0 0 511.999 511.999" style="enable-background:new 0 0 511.999 511.999;" xml:space="preserve">
<polygon style="fill:#FF7F3F;" points="255.998,8.313 161.561,149.214 350.436,149.214 "/>
<polygon style="fill:#FF9500;" points="80.856,80.86 113.711,247.269 247.268,113.714 "/>
<polygon style="fill:#FF7F3F;" points="8.311,256.001 149.213,350.438 149.213,161.563 "/>
<polygon style="fill:#FF9500;" points="80.856,431.143 247.268,398.288 113.712,264.73 "/>
<polygon style="fill:#FF7F3F;" points="255.998,503.689 350.436,362.787 161.56,362.785 "/>
<polygon style="fill:#FF9500;" points="431.139,431.143 398.285,264.731 264.729,398.287 "/>
<polygon style="fill:#FF7F3F;" points="503.686,256 362.785,161.563 362.782,350.438 "/>
<polygon style="fill:#FF9500;" points="431.139,80.858 264.73,113.713 398.285,247.27 "/>
<circle style="fill:#FEDD3D;" cx="256.001" cy="256.002" r="165.159"/>
<path style="opacity:0.3;fill:#FF9500;enable-background:new    ;" d="M255.998,90.844c-91.213,0-165.156,73.943-165.156,165.156
	s73.943,165.156,165.156,165.156V90.844z"/>
<path style="fill:#FF7F3F;" d="M208.292,225.36c0,26.347,21.36,47.706,47.706,47.706s47.706-21.358,47.706-47.706H208.292z"/>
<path style="fill:#1E252B;" d="M345.699,210.477c-6.89,0-12.475,5.586-12.475,12.475c0,6.89,5.585,12.475,12.475,12.475
	c6.89,0,12.475-5.585,12.475-12.475C358.173,216.063,352.587,210.477,345.699,210.477z M508.314,249.095l-90.005-60.328
	l20.986-106.298c0.536-2.72-0.317-5.527-2.278-7.488c-1.96-1.961-4.768-2.817-7.488-2.278L323.228,93.689L262.903,3.684
	C261.36,1.382,258.77,0,255.998,0s-5.361,1.382-6.905,3.684L188.767,93.69l-106.3-20.986c-2.721-0.536-5.529,0.318-7.488,2.278
	c-1.961,1.961-2.814,4.768-2.278,7.488l20.987,106.301L3.684,249.095C1.381,250.639,0,253.228,0,256
	c0,2.772,1.382,5.361,3.684,6.905l90.006,60.327L72.703,429.53c-0.536,2.72,0.317,5.527,2.278,7.488
	c1.574,1.574,3.695,2.435,5.878,2.435c0.535,0,1.074-0.051,1.61-0.157l106.302-20.987l60.324,90.006
	c1.544,2.303,4.133,3.684,6.905,3.684c2.772,0,5.361-1.382,6.905-3.684l60.327-90.007l106.298,20.988
	c0.535,0.106,1.075,0.157,1.611,0.157c2.182,0,4.304-0.86,5.878-2.435c1.961-1.961,2.814-4.768,2.278-7.488l-20.985-106.301
	l90.004-60.324c2.303-1.544,3.684-4.133,3.684-6.905C511.998,253.228,510.617,250.638,508.314,249.095z M23.243,256l64.79-43.425
	c-3.591,13.884-5.504,28.434-5.504,43.425c0,14.991,1.913,29.543,5.505,43.427L23.243,256z M420.581,91.417l-15.127,76.621
	c-14.962-25.324-36.171-46.533-61.495-61.495L420.581,91.417z M255.998,23.244l43.426,64.791
	c-13.884-3.592-28.435-5.504-43.426-5.504c-14.991,0-29.543,1.913-43.426,5.504L255.998,23.244z M91.415,91.417l76.621,15.127
	c-25.324,14.962-46.532,36.17-61.494,61.494L91.415,91.417z M91.416,420.583l15.127-76.62c14.961,25.323,36.17,46.532,61.494,61.493
	L91.416,420.583z M255.999,488.755l-43.425-64.791c13.882,3.591,28.434,5.504,43.424,5.504c14.991,0,29.544-1.913,43.429-5.505
	L255.999,488.755z M255.998,412.843c-86.483,0-156.843-70.359-156.843-156.843c0-86.483,70.359-156.843,156.843-156.843
	S412.841,169.517,412.841,256C412.842,342.483,342.482,412.843,255.998,412.843z M420.581,420.583l-76.62-15.128
	c25.324-14.962,46.533-36.171,61.494-61.494L420.581,420.583z M423.964,299.425c3.591-13.882,5.504-28.434,5.504-43.425
	c0-14.991-1.913-29.544-5.505-43.428L488.755,256L423.964,299.425z M303.704,217.047h-95.411c-4.591,0-8.313,3.722-8.313,8.313
	c0,30.889,25.129,56.019,56.019,56.019s56.019-25.129,56.019-56.019C312.016,220.769,308.294,217.047,303.704,217.047z
	 M255.998,264.753c-18.871,0-34.686-13.336-38.511-31.08h77.02C290.683,251.417,274.869,264.753,255.998,264.753z M166.298,210.477
	c-6.89,0-12.475,5.586-12.475,12.475c0,6.89,5.585,12.475,12.475,12.475c6.89,0,12.475-5.585,12.475-12.475
	C178.774,216.063,173.188,210.477,166.298,210.477z"/>
<g>
</g>
<g>
</g>
<g>
</g>
<g>
</g>
<g>
</g>
<g>
</g>
<g>
</g>
<g>
</g>
<g>
</g>
<g>
</g>
<g>
</g>
<g>
</g>
<g>
</g>
<g>
</g>
<g>
</g>
</svg>
